<svg width="210" height="183" version="1.1" xmlns="http://www.w3.org/2000/svg" desc="Created with imagetracer.js version 1.2.6" ><path fill="rgb(0,0,0)" stroke="rgb(0,0,0)" stroke-width="1" opacity="0" d="M 0 0 L 210 0 L 210 183 L 0 183 L 0 0 Z M 26 14 L 26 21 L 27 21 L 65 21 L 65 15 L 65 14 L 26 14 Z M 19 21 L 19 52 L 41 52 L 41 53 L 41 172 L 42 172 L 48 172 L 48 46 L 48 45 L 26 45 L 26 22 L 26 21 L 19 21 Z M 65 21 L 65 105 L 141 105 L 141 99 L 141 98 L 72 98 L 72 22 L 72 21 L 65 21 Z M 30 28 L 30 35 L 37 35 L 37 28 L 30 28 Z M 46 28 L 46 35 L 53 35 L 53 28 L 46 28 Z M 141 105 L 141 112 L 148 112 L 148 105 L 141 105 Z M 148 112 L 148 119 L 169 119 L 169 112 L 148 112 Z M 169 119 L 169 126 L 170 126 L 194 126 L 194 120 L 194 119 L 169 119 Z M 194 126 L 194 135 L 194 135 L 133 135 L 133 172 L 140 172 L 140 172 L 140 142 L 201 142 L 201 126 L 194 126 Z M 56 142 L 56 172 L 57 172 L 63 172 L 63 143 L 63 142 L 56 142 Z M 79 142 L 79 172 L 86 172 L 86 172 L 86 149 L 94 149 L 94 172 L 101 172 L 101 172 L 101 149 L 110 149 L 110 172 L 111 172 L 117 172 L 117 142 L 79 142 Z " /><path fill="rgb(0,0,0)" stroke="rgb(0,0,0)" stroke-width="1" opacity="1" d="M 26 14 L 64.5 14 L 65 14.5 L 65 21 L 72 21 L 72 98 L 140.5 98 L 141 98.5 L 141 105 L 148 105 L 148 112 L 168.5 112 L 169.5 119 L 194 119 L 194 126 L 200.5 126 L 201 126.5 L 201 142 L 140 142 L 140 171.5 L 139.5 172 L 133 172 L 133 135 L 193.5 135 L 194 134.5 L 194 126 L 169.5 126 L 168.5 119 L 148 119 L 148 112 L 141 112 L 141 105.5 L 140.5 105 L 65 105 L 65 21 L 26 21 L 26 45 L 47.5 45 L 48 45.5 L 48 172 L 41.5 172 L 41 171.5 L 41 52.5 L 40.5 52 L 19 52 L 19 21 L 26 21 L 26 14 Z " /><path fill="rgb(0,0,0)" stroke="rgb(0,0,0)" stroke-width="1" opacity="1" d="M 30 28 L 37 28 L 37 35 L 30 35 L 30 28 Z " /><path fill="rgb(0,0,0)" stroke="rgb(0,0,0)" stroke-width="1" opacity="1" d="M 46 28 L 53 28 L 53 35 L 46 35 L 46 28 Z " /><path fill="rgb(0,0,0)" stroke="rgb(0,0,0)" stroke-width="1" opacity="1" d="M 56 142 L 62.5 142 L 63 142.5 L 63 172 L 56.5 172 L 56 171.5 L 56 142 Z " /><path fill="rgb(0,0,0)" stroke="rgb(0,0,0)" stroke-width="1" opacity="1" d="M 79 142 L 117 142 L 117 172 L 110.5 172 L 110 171.5 L 110 149 L 101 149 L 101 171.5 L 100.5 172 L 94 172 L 94 149 L 86 149 L 86 171.5 L 85.5 172 L 79 172 L 79 142 Z " /></svg>